#N canvas 827 239 527 327 12;
#X obj 270 374 makenote;
#X msg 293 334 100, f 5;
#X msg 340 334 1000, f 6;
#X obj 43 84 bng 25 250 50 0 empty empty empty 17 7 0 10 #e4e4e4 #4d4d4d #373737;
#X obj 43 15 tgl 25 0 empty empty empty 17 7 0 10 #e4e4e4 #4d4d4d #373737 0 1;
#X obj 43 120 random 6;
#X floatatom 43 151 5 0 0 0 - - - 12;
#X obj 88 151 sel 0 1 2 3 4 5;
#X msg 34 224 60, f 5;
#X msg 79 224 62, f 5;
#X msg 128 224 64, f 5;
#X msg 179 224 67, f 5;
#X msg 228 225 69, f 5;
#X msg 277 225 72, f 5;
#X obj 393 478 noteout;
#X obj 293 293 loadbang;
#X obj 90 15 nbx 4 18 0 2000 0 1 empty empty empty 0 -8 0 10 #e4e4e4 #373737 #373737 300 256;
#X obj 43 55 metro 200;
#X floatatom 619 43 9 0 0 0 - - - 12;
#X obj 397 15 notein;
#X text 349 67 velocity;
#X text 349 90 channel;
#X obj 464 15 ctlin;
#X text 523 90 value;
#X text 523 67 controller #;
#X text 349 42 note;
#X obj 619 15 bendin, f 7;
#X text 523 41 channel/port;
#X floatatom 399 43 4 0 127 0 - - - 0;
#X floatatom 413 68 4 0 127 0 - - - 0;
#X floatatom 466 91 4 0 127 0 - - - 0;
#X floatatom 480 68 4 0 127 0 - - - 0;
#X floatatom 496 43 0 1 64 0 - - - 0;
#X floatatom 429 91 0 1 64 0 - - - 0;
#X floatatom 707 43 0 1 64 0 - - - 0;
#X obj 466 334 vradio 20 1 1 5 empty empty empty 0 -8 0 10 #e4e4e4 #4d4d4d #373737 0;
#X obj 463 442 + 1;
#X text 449 307 channel;
#X obj 509 478 ctlout;
#X obj 619 478 ctlout;
#X obj 643 408 loadbang;
#X msg 685 442 2, f 5;
#X msg 643 442 1, f 5;
#X floatatom 620 151 3 0 0 0 - - - 12;
#X obj 619 114 expr $i1 * 127 / 16383;
#X connect 0 0 14 0;
#X connect 0 1 14 1;
#X connect 1 0 0 1;
#X connect 2 0 0 2;
#X connect 3 0 5 0;
#X connect 4 0 17 0;
#X connect 5 0 6 0;
#X connect 5 0 7 0;
#X connect 7 0 8 0;
#X connect 7 1 9 0;
#X connect 7 2 10 0;
#X connect 7 3 11 0;
#X connect 7 4 12 0;
#X connect 7 5 13 0;
#X connect 8 0 0 0;
#X connect 9 0 0 0;
#X connect 10 0 0 0;
#X connect 11 0 0 0;
#X connect 12 0 0 0;
#X connect 13 0 0 0;
#X connect 15 0 1 0;
#X connect 15 0 2 0;
#X connect 16 0 17 1;
#X connect 17 0 3 0;
#X connect 18 0 44 0;
#X connect 19 0 28 0;
#X connect 19 1 29 0;
#X connect 19 2 33 0;
#X connect 22 0 30 0;
#X connect 22 1 31 0;
#X connect 22 2 32 0;
#X connect 26 0 18 0;
#X connect 26 1 34 0;
#X connect 28 0 0 0;
#X connect 29 0 0 1;
#X connect 30 0 38 0;
#X connect 31 0 38 1;
#X connect 33 0 14 2;
#X connect 35 0 36 0;
#X connect 36 0 14 2;
#X connect 36 0 38 2;
#X connect 40 0 41 0;
#X connect 40 0 42 0;
#X connect 41 0 39 2;
#X connect 42 0 39 1;
#X connect 43 0 39 0;
#X connect 44 0 43 0;
